<mxfile host="app.diagrams.net" modified="2022-11-09T15:09:12.913Z" agent="5.0 (Windows NT 10.0; Win64; x64) AppleWebKit/537.36 (KHTML, like Gecko) Chrome/107.0.0.0 Safari/537.36 Edg/107.0.1418.35" etag="yIOWnIORyWE-XZrHpyrF" version="20.5.3" type="github">
  <diagram id="ZBlFoYO_g2majVcosmc-" name="FlowchartCalculatorBMI">
    <mxGraphModel dx="1375" dy="1894" grid="1" gridSize="10" guides="1" tooltips="1" connect="1" arrows="1" fold="1" page="1" pageScale="1" pageWidth="850" pageHeight="1100" math="0" shadow="0">
      <root>
        <mxCell id="0" />
        <mxCell id="1" parent="0" />
        <mxCell id="0nemHW7oIql4b9ai7Sw4-1" value="Vertical Container" style="swimlane;whiteSpace=wrap;html=1;fillColor=#dae8fc;strokeColor=#6c8ebf;" parent="1" vertex="1">
          <mxGeometry x="10" y="-30" width="1115" height="1090" as="geometry" />
        </mxCell>
        <mxCell id="iR3qnVmjGhlX-kNHt65L-20" value="START" style="strokeWidth=2;html=1;shape=mxgraph.flowchart.start_1;whiteSpace=wrap;fillColor=#d5e8d4;strokeColor=#82b366;" vertex="1" parent="0nemHW7oIql4b9ai7Sw4-1">
          <mxGeometry x="270" y="280" width="240" height="60" as="geometry" />
        </mxCell>
        <mxCell id="iR3qnVmjGhlX-kNHt65L-21" value="What your Weight? (lb)" style="shape=parallelogram;html=1;strokeWidth=2;perimeter=parallelogramPerimeter;whiteSpace=wrap;rounded=1;arcSize=12;size=0.23;fillColor=#f8cecc;strokeColor=#b85450;" vertex="1" parent="0nemHW7oIql4b9ai7Sw4-1">
          <mxGeometry x="270" y="390" width="240" height="60" as="geometry" />
        </mxCell>
        <mxCell id="iR3qnVmjGhlX-kNHt65L-22" value="What your Height? (in)" style="shape=parallelogram;html=1;strokeWidth=2;perimeter=parallelogramPerimeter;whiteSpace=wrap;rounded=1;arcSize=12;size=0.23;fillColor=#f8cecc;strokeColor=#b85450;" vertex="1" parent="0nemHW7oIql4b9ai7Sw4-1">
          <mxGeometry x="270" y="490" width="240" height="60" as="geometry" />
        </mxCell>
        <mxCell id="iR3qnVmjGhlX-kNHt65L-23" value="" style="shape=flexArrow;endArrow=classic;html=1;rounded=0;exitX=0.5;exitY=1;exitDx=0;exitDy=0;exitPerimeter=0;fillColor=#dae8fc;strokeColor=#6c8ebf;" edge="1" parent="0nemHW7oIql4b9ai7Sw4-1" source="iR3qnVmjGhlX-kNHt65L-20" target="iR3qnVmjGhlX-kNHt65L-21">
          <mxGeometry width="50" height="50" relative="1" as="geometry">
            <mxPoint x="390" y="710" as="sourcePoint" />
            <mxPoint x="440" y="660" as="targetPoint" />
          </mxGeometry>
        </mxCell>
        <mxCell id="iR3qnVmjGhlX-kNHt65L-24" value="" style="shape=flexArrow;endArrow=classic;html=1;rounded=0;entryX=0.5;entryY=0;entryDx=0;entryDy=0;fillColor=#dae8fc;strokeColor=#6c8ebf;" edge="1" parent="0nemHW7oIql4b9ai7Sw4-1" target="iR3qnVmjGhlX-kNHt65L-22">
          <mxGeometry width="50" height="50" relative="1" as="geometry">
            <mxPoint x="390" y="450" as="sourcePoint" />
            <mxPoint x="440" y="400" as="targetPoint" />
          </mxGeometry>
        </mxCell>
        <mxCell id="iR3qnVmjGhlX-kNHt65L-26" value="" style="shape=flexArrow;endArrow=classic;html=1;rounded=0;exitX=0.5;exitY=1;exitDx=0;exitDy=0;fillColor=#dae8fc;strokeColor=#6c8ebf;" edge="1" parent="0nemHW7oIql4b9ai7Sw4-1" source="iR3qnVmjGhlX-kNHt65L-22">
          <mxGeometry width="50" height="50" relative="1" as="geometry">
            <mxPoint x="390" y="710" as="sourcePoint" />
            <mxPoint x="390" y="590" as="targetPoint" />
          </mxGeometry>
        </mxCell>
        <mxCell id="iR3qnVmjGhlX-kNHt65L-27" value="Store users input in name variable" style="rounded=1;whiteSpace=wrap;html=1;fillColor=#80FF00;" vertex="1" parent="0nemHW7oIql4b9ai7Sw4-1">
          <mxGeometry x="270" y="590" width="240" height="60" as="geometry" />
        </mxCell>
      </root>
    </mxGraphModel>
  </diagram>
</mxfile>
